<svg xmlns="http://www.w3.org/2000/svg" viewBox="0 0 100 100" fill="none" stroke="#D4AF37" stroke-width="1.5">
  <circle cx="50" cy="50" r="45" stroke-dasharray="2 2"/>
  <circle cx="50" cy="50" r="35"/>
  <path d="M50 5v10M50 85v10M5 50h10M85 50h10" stroke-width="2"/>
  <path d="M18.2 18.2l7 7M74.8 74.8l7 7M18.2 81.8l7-7M74.8 25.2l7-7"/>
  <circle cx="50" cy="50" r="10" fill="#D4AF37" fill-opacity="0.15"/>
  <path d="M50 25c-5 0-10 10-10 25s5 25 10 25 10-10 10-25-5-25-10-25z" fill="#D4AF37" fill-opacity="0.1"/>
  <path d="M25 50c0-5 10-10 25-10s25 5 25 10-10 10-25 10-25-5-25-10z" fill="#D4AF37" fill-opacity="0.1"/>
</svg>
